<?xml version="1.0" encoding="utf-8"?>
<!-- Generator: Adobe Illustrator 16.0.0, SVG Export Plug-In . SVG Version: 6.00 Build 0)  -->
<!DOCTYPE svg PUBLIC "-//W3C//DTD SVG 1.1//EN" "http://www.w3.org/Graphics/SVG/1.1/DTD/svg11.dtd">
<svg version="1.1" id="图层_1" xmlns="http://www.w3.org/2000/svg" xmlns:xlink="http://www.w3.org/1999/xlink" x="0px" y="0px"
	 width="426.043px" height="435.044px" viewBox="0 0 426.043 435.044" enable-background="new 0 0 426.043 435.044"
	 xml:space="preserve">
<g display="none">
	
		<line display="inline" fill="none" stroke="#D3D3D3" stroke-width="5" stroke-miterlimit="10" x1="392.556" y1="170.265" x2="349.089" y2="181.911"/>
	
		<line display="inline" fill="none" stroke="#D3D3D3" stroke-width="5" stroke-miterlimit="10" x1="83.459" y1="253.087" x2="40.958" y2="264.475"/>
	
		<line display="inline" fill="none" stroke="#D3D3D3" stroke-width="5" stroke-miterlimit="10" x1="118.627" y1="313.365" x2="87.003" y2="344.989"/>
	
		<line display="inline" fill="none" stroke="#D3D3D3" stroke-width="5" stroke-miterlimit="10" x1="344.661" y1="87.332" x2="313.249" y2="118.743"/>
	
		<line display="inline" fill="none" stroke="#D3D3D3" stroke-width="5" stroke-miterlimit="10" x1="180.236" y1="349.008" x2="168.677" y2="392.144"/>
	
		<line display="inline" fill="none" stroke="#D3D3D3" stroke-width="5" stroke-miterlimit="10" x1="262.987" y1="40.177" x2="251.474" y2="83.149"/>
	
		<line display="inline" fill="none" stroke="#D3D3D3" stroke-width="5" stroke-miterlimit="10" x1="261.671" y1="392.72" x2="250.024" y2="349.253"/>
	
		<line display="inline" fill="none" stroke="#D3D3D3" stroke-width="5" stroke-miterlimit="10" x1="167.461" y1="41.123" x2="178.849" y2="83.624"/>
	
		<line display="inline" fill="none" stroke="#D3D3D3" stroke-width="5" stroke-miterlimit="10" x1="87.003" y1="87.332" x2="118.589" y2="118.918"/>
	
		<line display="inline" fill="none" stroke="#D3D3D3" stroke-width="5" stroke-miterlimit="10" x1="344.661" y1="344.989" x2="313.212" y2="313.539"/>
	
		<line display="inline" fill="none" stroke="#D3D3D3" stroke-width="5" stroke-miterlimit="10" x1="39.849" y1="169.006" x2="83.054" y2="180.583"/>
	
		<line display="inline" fill="none" stroke="#D3D3D3" stroke-width="5" stroke-miterlimit="10" x1="391.815" y1="263.315" x2="348.913" y2="251.819"/>
</g>
<g>
	<g>
		<path fill="#D3D3D3" d="M216.201,405.535c104.398,0,189.333-84.935,189.333-189.333S320.6,26.869,216.201,26.869
			c-104.399,0-189.333,84.935-189.333,189.333S111.802,405.535,216.201,405.535z M216.201,38.869
			c97.781,0,177.333,79.551,177.333,177.333c0,97.782-79.552,177.333-177.333,177.333c-97.783,0-177.333-79.551-177.333-177.333
			C38.868,118.42,118.418,38.869,216.201,38.869z"/>
	</g>
	<g>
		<rect x="28.202" y="214.202" fill="#D3D3D3" width="376" height="5"/>
	</g>
	<g>
		
			<rect x="213.701" y="28.043" transform="matrix(-0.866 0.5 -0.5 -0.866 511.5379 295.3368)" fill="#D3D3D3" width="5" height="376.319"/>
	</g>
	<g>
		
			<rect x="213.701" y="28.043" transform="matrix(-0.3419 0.9397 -0.9397 -0.3419 493.2995 86.9636)" fill="#D3D3D3" width="5.001" height="376.319"/>
	</g>
	<g>
		
			<rect x="213.701" y="28.043" transform="matrix(-0.6561 0.7547 -0.7547 -0.6561 521.2115 194.878)" fill="#D3D3D3" width="5" height="376.318"/>
	</g>
	<g>
		
			<rect x="213.701" y="28.043" transform="matrix(-0.9848 0.1738 -0.1738 -0.9848 466.6927 391.5311)" fill="#D3D3D3" width="5" height="376.318"/>
	</g>
	<g>
		
			<rect x="28.041" y="213.703" transform="matrix(-0.1737 0.9848 -0.9848 -0.1737 466.6624 40.8302)" fill="#D3D3D3" width="376.319" height="5"/>
	</g>
	<g>
		
			<rect x="28.042" y="213.702" transform="matrix(-0.5 0.866 -0.866 -0.5 511.538 137.0677)" fill="#D3D3D3" width="376.317" height="5"/>
	</g>
	<g>
		
			<rect x="28.042" y="213.702" transform="matrix(-0.766 0.6428 -0.6428 -0.766 520.7925 242.8516)" fill="#D3D3D3" width="376.318" height="5"/>
	</g>
	<g>
		
			<rect x="28.041" y="213.703" transform="matrix(-0.9397 0.342 -0.342 -0.9397 493.3085 345.422)" fill="#D3D3D3" width="376.319" height="5"/>
	</g>
	<g>
		<circle fill="#FFFFFF" cx="216.201" cy="216.201" r="143.421"/>
	</g>
</g>
</svg>
